<svg xmlns="http://www.w3.org/2000/svg" xmlns:xlink="http://www.w3.org/1999/xlink" version="1.1" id="Layer_1" x="0px" y="0px" viewBox="0 0 213.88 80.44" style="enable-background:new 0 0 213.88 80.44;" xml:space="preserve">
<style type="text/css">
	.st0{fill:#FFFFFF;}
</style>
<g>
	<path class="st0" d="M37.44,64.7L37.44,64.7L37.44,64.7z"/>
	<path class="st0" d="M80.64,40.22c0-11.52,7.23-21.36,17.4-25.22C90.67,5.86,79.38,0,66.72,0h-26.5C18.01,0,0,18.01,0,40.22v0   c0,22.21,18.01,40.22,40.22,40.22h26.5c12.66,0,23.95-5.86,31.32-15C87.87,61.57,80.64,51.74,80.64,40.22z M45.71,15.03   c2.28,0,4.14,1.83,4.14,4.09s-1.86,4.09-4.14,4.09s-4.14-1.83-4.14-4.09S43.42,15.03,45.71,15.03z M59.41,53.42l-0.01-0.03   c-1.63,5.25-5.65,9.6-11.15,11.3c-8.7,2.67-17.85-2.35-20.63-11.24l0.01,0c-0.77-2.44-1.02-5.09-0.64-7.8   c0.83-5.87,4.41-10.62,9.2-13.04h-0.03c0.41-0.21,0.88-0.29,1.37-0.22c1.29,0.19,2.17,1.42,1.99,2.75c-0.13,0.89-0.7,1.59-1.45,1.9   L38,37.1c-3.24,1.78-5.64,5.07-6.2,9.1c-0.26,1.87-0.09,3.7,0.42,5.39l0.01,0.01c0.45,1.59,1.24,2.98,2.19,4.19   c0.05,0.06,0.09,0.12,0.15,0.18c0.14,0.18,0.3,0.35,0.45,0.52c0.16,0.18,0.33,0.35,0.51,0.52c0.04,0.04,0.09,0.08,0.13,0.12   c1.69,1.56,4.1,2.77,6.51,3.14h0.03l-0.01,0c1.59,0.21,3.25,0.09,4.88-0.41c3.77-1.16,6.58-4.09,7.82-7.66l0.04-0.09   c0.19-0.82,0.78-1.5,1.61-1.76c1.25-0.38,2.55,0.35,2.92,1.64C59.57,52.48,59.55,52.97,59.41,53.42z M75.19,56.2l-4.7,2.63   c-0.04,0.02-0.08,0.02-0.12,0.04c-0.04,0.01-0.08,0.02-0.13,0.04c-0.24,0.1-0.48,0.13-0.72,0.13c-0.02,0-0.04,0-0.06,0   c-0.14-0.01-0.28-0.02-0.41-0.06c-0.53-0.12-1.01-0.43-1.34-0.92l-6.56-9.9H46.06c-0.22,0-0.38,0-0.6-0.02   c-1.47-0.15-2.67-1.43-2.67-2.93V28.22c0-1.59,1.31-2.88,2.92-2.88c1.61,0,2.92,1.29,2.92,2.88v5.37h9.01   c1.29,0,2.34,1.15,2.34,2.58c0,1.43-1.05,2.59-2.34,2.59h-9.01v4.13h13c1.35,0.08,1.84,0.89,2.11,1.28l6.92,10.43l2.73-1.53   c0.88-0.49,1.99-0.19,2.49,0.68C76.38,54.61,76.06,55.71,75.19,56.2z"/>
	<g>
		<path class="st0" d="M157.43,57.09H161c0.21,0,0.38-0.17,0.38-0.39v-3.57c0-0.21-0.17-0.38-0.38-0.38h-3.57    c-0.21,0-0.39,0.17-0.39,0.38v3.57C157.04,56.91,157.21,57.09,157.43,57.09z"/>
		<path class="st0" d="M150.66,57.09h3.56c0.22,0,0.39-0.17,0.39-0.39v-3.57c0-0.21-0.17-0.38-0.39-0.38h-3.56    c-0.22,0-0.39,0.17-0.39,0.38v3.57C150.27,56.91,150.44,57.09,150.66,57.09z"/>
		<path class="st0" d="M170.96,57.09h3.57c0.21,0,0.38-0.17,0.38-0.39v-3.57c0-0.21-0.17-0.38-0.38-0.38h-3.57    c-0.22,0-0.38,0.17-0.38,0.38v3.57C170.58,56.91,170.74,57.09,170.96,57.09z"/>
		<path class="st0" d="M164.19,57.09h3.57c0.21,0,0.38-0.17,0.38-0.39v-3.57c0-0.21-0.17-0.38-0.38-0.38h-3.57    c-0.21,0-0.38,0.17-0.38,0.38v3.57C163.81,56.91,163.98,57.09,164.19,57.09z"/>
		<path class="st0" d="M149.75,43.09h25.52c0.17,0,0.29-0.14,0.29-0.32V20.8c0-0.17-0.12-0.32-0.29-0.32h-25.52    c-0.17,0-0.3,0.14-0.3,0.32v21.97C149.45,42.94,149.58,43.09,149.75,43.09z"/>
		<path class="st0" d="M150.65,58.37h-3.57c-0.22,0-0.38,0.17-0.38,0.38v3.57c0,0.21,0.17,0.38,0.38,0.38h3.57    c0.21,0,0.39-0.17,0.39-0.38v-3.57C151.04,58.54,150.87,58.37,150.65,58.37z"/>
		<path class="st0" d="M157.42,58.37h-3.57c-0.21,0-0.38,0.17-0.38,0.38v3.57c0,0.21,0.17,0.38,0.38,0.38h3.57    c0.22,0,0.39-0.17,0.39-0.38v-3.57C157.81,58.54,157.64,58.37,157.42,58.37z"/>
		<path class="st0" d="M173.66,0h-26.5c-12.49,0-23.65,5.69-31.03,14.63c10.72,3.57,18.45,13.67,18.45,25.59    s-7.73,22.02-18.45,25.59c7.38,8.93,18.54,14.63,31.03,14.63h26.5c22.21,0,40.22-18.01,40.22-40.22v0    C213.88,18.01,195.87,0,173.66,0z M144.76,15.94c0-0.21,0.15-0.39,0.33-0.39h34.65c0.18,0,0.33,0.17,0.33,0.39v32.62    c0,0.21-0.15,0.38-0.33,0.38h-34.65c-0.18,0-0.33-0.18-0.33-0.38V15.94z M180.94,64.45c0,0.24-0.2,0.44-0.44,0.44h-36.18    c-0.24,0-0.44-0.2-0.44-0.44V51.24c0-0.24,0.2-0.44,0.44-0.44h36.18c0.24,0,0.44,0.2,0.44,0.44V64.45z"/>
		<path class="st0" d="M177.72,58.37h-3.58c-0.21,0-0.38,0.17-0.38,0.38v3.57c0,0.21,0.17,0.38,0.38,0.38h3.58    c0.21,0,0.38-0.17,0.38-0.38v-3.57C178.11,58.54,177.93,58.37,177.72,58.37z"/>
		<path class="st0" d="M170.95,58.37h-3.57c-0.21,0-0.38,0.17-0.38,0.38v3.57c0,0.21,0.17,0.38,0.38,0.38h3.57    c0.21,0,0.39-0.17,0.39-0.38v-3.57C171.34,58.54,171.17,58.37,170.95,58.37z"/>
		<path class="st0" d="M164.19,58.37h-3.57c-0.22,0-0.39,0.17-0.39,0.38v3.57c0,0.21,0.17,0.38,0.39,0.38h3.57    c0.22,0,0.39-0.17,0.39-0.38v-3.57C164.58,58.54,164.4,58.37,164.19,58.37z"/>
	</g>
	<g>
		<path class="st0" d="M204.13,80.04v-4.46h-1.59v-0.91h4.27v0.91h-1.59v4.46H204.13z"/>
		<path class="st0" d="M207.49,80.04v-5.37h1.62l0.97,3.66l0.96-3.66h1.63v5.37h-1.01v-4.23l-1.07,4.23h-1.04l-1.06-4.23v4.23    H207.49z"/>
	</g>
	<g>
		<path class="st0" d="M118.54,35.11L97.08,23.94c0,4.6,0.52,7.56,3.67,9.2l10.78,5.61L118.54,35.11z"/>
		<path class="st0" d="M121.35,36.57l-7.01,3.65l0.01,0.01l-13.5,7.02c-3.07,1.67-3.77,5.29-3.77,9.25l19.49-10.14    C120.88,44.01,121.35,41.14,121.35,36.57L121.35,36.57z"/>
	</g>
</g>
</svg>